<?xml version="1.0" encoding="UTF-8" standalone="no"?>
<!-- Created with Inkscape (http://www.inkscape.org/) -->

<svg
   version="1.1"
   id="svg2"
   width="861.33331"
   height="333.33334"
   viewBox="0 0 861.33331 333.33334"
   sodipodi:docname="Google Play Badge.eps"
   xmlns:inkscape="http://www.inkscape.org/namespaces/inkscape"
   xmlns:sodipodi="http://sodipodi.sourceforge.net/DTD/sodipodi-0.dtd"
   xmlns="http://www.w3.org/2000/svg"
   xmlns:svg="http://www.w3.org/2000/svg">
  <defs
     id="defs6" />
  <sodipodi:namedview
     id="namedview4"
     pagecolor="#ffffff"
     bordercolor="#000000"
     borderopacity="0.25"
     inkscape:showpageshadow="2"
     inkscape:pageopacity="0.0"
     inkscape:pagecheckerboard="0"
     inkscape:deskcolor="#d1d1d1" />
  <g
     id="g8"
     inkscape:groupmode="layer"
     inkscape:label="ink_ext_XXXXXX"
     transform="matrix(1.3333333,0,0,-1.3333333,0,333.33333)">
    <g
       id="g10"
       transform="scale(0.1)">
      <path
         d="M 6220.74,292.969 H 239.258 C 107.668,292.969 0,400.629 0,532.23 v 1435.55 c 0,131.6 107.668,239.26 239.258,239.26 H 6220.74 c 131.59,0 239.26,-107.66 239.26,-239.26 V 532.23 c 0,-131.601 -107.67,-239.261 -239.26,-239.261 v 0"
         style="fill:#100f0d;fill-opacity:1;fill-rule:nonzero;stroke:none"
         id="path12" />
      <path
         d="m 6220.74,2168.76 c 110.83,0 200.98,-90.16 200.98,-200.99 V 532.219 c 0,-110.821 -90.15,-200.989 -200.98,-200.989 H 239.258 c -110.824,0 -200.9767,90.168 -200.9767,200.989 V 1967.77 c 0,110.83 90.1527,200.99 200.9767,200.99 H 6220.74 m 0,38.27 H 239.258 C 107.668,2207.03 0,2099.36 0,1967.77 V 532.219 C 0,400.621 107.668,292.961 239.258,292.961 H 6220.74 c 131.59,0 239.26,107.66 239.26,239.258 V 1967.77 c 0,131.59 -107.67,239.26 -239.26,239.26 v 0 0"
         style="fill:#a2a2a1;fill-opacity:1;fill-rule:nonzero;stroke:none"
         id="path14" />
      <path
         d="M 991.355,1277.56 481.902,736.828 c 0.028,-0.098 0.047,-0.219 0.078,-0.328 15.629,-58.699 69.247,-101.941 132.899,-101.941 25.437,0 49.324,6.882 69.812,18.953 l 1.622,0.968 573.457,330.879 -268.415,292.201 v 0"
         style="fill:#eb3131;fill-opacity:1;fill-rule:nonzero;stroke:none"
         id="path16" />
      <path
         d="m 1506.76,1369.63 -0.48,0.32 -247.57,143.55 -278.921,-248.22 279.901,-279.85 246.26,142.09 c 43.17,23.32 72.49,68.83 72.49,121.3 0,52.15 -28.92,97.41 -71.68,120.81 v 0"
         style="fill:#f6b60b;fill-opacity:1;fill-rule:nonzero;stroke:none"
         id="path18" />
      <path
         d="m 481.867,1763.11 c -3.051,-11.3 -4.664,-23.15 -4.664,-35.41 V 772.211 c 0,-12.27 1.598,-24.141 4.699,-35.371 l 526.978,526.87 -527.013,499.4 v 0"
         style="fill:#5778c5;fill-opacity:1;fill-rule:nonzero;stroke:none"
         id="path20" />
      <path
         d="m 995.117,1249.95 263.663,263.62 -572.792,332.11 c -20.808,12.46 -45.109,19.67 -71.109,19.67 -63.652,0 -117.352,-43.32 -132.977,-102.1 -0.015,-0.05 -0.019,-0.1 -0.035,-0.14 l 513.25,-513.16 v 0"
         style="fill:#3bad49;fill-opacity:1;fill-rule:nonzero;stroke:none"
         id="path22" />
      <path
         d="m 2053.75,1405.34 c -31.56,17.98 -56.6,42.65 -75.12,74.02 -18.53,31.37 -27.79,66.31 -27.79,104.83 0,38.52 9.26,73.46 27.79,104.83 18.52,31.37 43.56,56.03 75.12,74.02 31.54,17.97 66.03,26.96 103.45,26.96 30.08,0 57.78,-5.32 83.1,-15.95 25.31,-10.65 46.77,-25.51 64.38,-44.58 l -41.82,-41.82 c -26.79,30.07 -62,45.12 -105.66,45.12 -25.68,0 -49.72,-6.14 -72.09,-18.43 -22.38,-12.3 -40.17,-29.82 -53.37,-52.55 -13.21,-22.76 -19.82,-48.62 -19.82,-77.6 0,-29.35 6.69,-55.31 20.09,-77.87 13.39,-22.56 31.18,-39.98 53.38,-52.27 22.19,-12.3 46.31,-18.44 72.36,-18.44 41.46,0 75.2,13.02 101.26,39.07 8.43,8.07 15.49,18.34 21.18,30.82 5.69,12.46 9.63,26.23 11.84,41.27 h -135.38 v 53.38 h 191.5 c 2.21,-12.48 3.31,-23.11 3.31,-31.92 0,-24.95 -3.95,-48.69 -11.83,-71.26 -7.9,-22.56 -20.09,-42.47 -36.6,-59.71 -17.61,-19.08 -38.71,-33.66 -63.29,-43.75 -24.58,-10.08 -52.09,-15.13 -82.54,-15.13 -37.42,0 -71.91,8.99 -103.45,26.96"
         style="fill:#ffffff;fill-opacity:1;fill-rule:nonzero;stroke:none"
         id="path24" />
      <path
         d="m 2588.08,1444.42 c 13.2,7.7 23.84,18.71 31.91,33.01 8.07,14.31 12.11,31 12.11,50.08 0,19.07 -4.04,35.77 -12.11,50.08 -8.07,14.31 -18.71,25.31 -31.91,33.01 -13.21,7.71 -27.71,11.56 -43.48,11.56 -15.77,0 -30.36,-3.85 -43.74,-11.56 -13.4,-7.7 -24.13,-18.7 -32.19,-33.01 -8.08,-14.31 -12.11,-31.01 -12.11,-50.08 0,-19.08 4.03,-35.77 12.11,-50.08 8.06,-14.3 18.79,-25.31 32.19,-33.01 13.38,-7.71 27.97,-11.56 43.74,-11.56 15.77,0 30.27,3.85 43.48,11.56 z m -119.41,-46.5 c -22.39,13.02 -39.82,30.9 -52.28,53.65 -12.48,22.74 -18.72,48.06 -18.72,75.94 0,27.88 6.24,53.19 18.72,75.94 12.46,22.75 29.89,40.63 52.28,53.66 22.37,13.02 47.68,19.53 75.93,19.53 27.88,0 53.02,-6.6 75.39,-19.81 22.38,-13.2 39.81,-31.19 52.28,-53.93 12.47,-22.75 18.72,-47.87 18.72,-75.39 0,-27.88 -6.25,-53.2 -18.72,-75.94 -12.47,-22.75 -29.81,-40.63 -52,-53.65 -22.2,-13.02 -47.42,-19.54 -75.67,-19.54 -28.25,0 -53.56,6.52 -75.93,19.54"
         style="fill:#ffffff;fill-opacity:1;fill-rule:nonzero;stroke:none"
         id="path26" />
      <path
         d="m 2922.1,1444.42 c 13.21,7.7 23.85,18.71 31.92,33.01 8.06,14.31 12.11,31 12.11,50.08 0,19.07 -4.05,35.77 -12.11,50.08 -8.07,14.31 -18.71,25.31 -31.92,33.01 -13.2,7.71 -27.7,11.56 -43.47,11.56 -15.78,0 -30.36,-3.85 -43.75,-11.56 -13.4,-7.7 -24.13,-18.7 -32.19,-33.01 -8.08,-14.31 -12.11,-31.01 -12.11,-50.08 0,-19.08 4.03,-35.77 12.11,-50.08 8.06,-14.3 18.79,-25.31 32.19,-33.01 13.39,-7.71 27.97,-11.56 43.75,-11.56 15.77,0 30.27,3.85 43.47,11.56 z m -119.41,-46.5 c -22.38,13.02 -39.82,30.9 -52.28,53.65 -12.48,22.74 -18.71,48.06 -18.71,75.94 0,27.88 6.23,53.19 18.71,75.94 12.46,22.75 29.9,40.63 52.28,53.66 22.37,13.02 47.68,19.53 75.94,19.53 27.87,0 53.01,-6.6 75.39,-19.81 22.37,-13.2 39.8,-31.19 52.28,-53.93 12.46,-22.75 18.71,-47.87 18.71,-75.39 0,-27.88 -6.25,-53.2 -18.71,-75.94 -12.48,-22.75 -29.81,-40.63 -52,-53.65 -22.21,-13.02 -47.43,-19.54 -75.67,-19.54 -28.26,0 -53.57,6.52 -75.94,19.54"
         style="fill:#ffffff;fill-opacity:1;fill-rule:nonzero;stroke:none"
         id="path28" />
      <path
         d="m 3248.98,1451.96 c 12.46,7.22 22.46,17.61 29.99,31.17 7.51,13.55 11.28,29.71 11.28,48.51 0,19.15 -3.77,35.59 -11.28,49.32 -7.53,13.74 -17.53,24.13 -29.99,31.18 -12.48,7.05 -26.24,10.57 -41.28,10.57 -15.04,0 -28.89,-3.52 -41.54,-10.57 -12.66,-7.05 -22.75,-17.44 -30.27,-31.18 -7.52,-13.73 -11.28,-30.17 -11.28,-49.32 0,-18.8 3.76,-35.06 11.28,-48.79 7.52,-13.73 17.61,-24.12 30.27,-31.17 12.65,-7.05 26.5,-10.56 41.54,-10.56 15.04,0 28.8,3.6 41.28,10.84 z M 3122.13,1282.9 c -22.56,15.6 -37.69,34.4 -45.4,56.41 l 55.03,23.11 c 5.87,-15.03 15.5,-27.14 28.89,-36.32 13.39,-9.16 28.89,-13.75 46.5,-13.75 26.05,0 46.41,8 61.09,23.99 14.66,16 22.01,38.45 22.01,67.35 v 26.97 h -3.3 c -9.18,-13.58 -21.46,-24.21 -36.87,-31.92 -15.41,-7.7 -33.02,-11.55 -52.83,-11.55 -23.85,0 -45.77,5.99 -65.76,17.98 -20,11.99 -35.96,28.98 -47.88,50.97 -11.92,21.98 -17.88,47.15 -17.88,75.5 0,28.34 5.96,53.5 17.88,75.49 11.92,21.99 27.88,39.07 47.88,51.25 19.99,12.17 41.91,18.26 65.76,18.26 19.44,0 36.95,-3.95 52.55,-11.83 15.59,-7.89 27.97,-18.63 37.15,-32.2 h 3.3 v 35.23 h 56.68 v -265.8 c 0,-30.07 -5.87,-55.85 -17.61,-77.32 -11.75,-21.46 -28.16,-37.69 -49.25,-48.7 -21.1,-11 -45.4,-16.51 -72.92,-16.51 -34.11,0 -62.45,7.81 -85.02,23.39"
         style="fill:#ffffff;fill-opacity:1;fill-rule:nonzero;stroke:none"
         id="path30" />
      <path
         d="m 3417.36,1781.2 h 59.43 v -394.01 h -59.43 v 394.01"
         style="fill:#ffffff;fill-opacity:1;fill-rule:nonzero;stroke:none"
         id="path32" />
      <path
         d="m 4533.81,1428.45 c -15.97,0 -28.63,4.4 -38.54,12.66 -9.91,8.26 -14.86,18.72 -14.86,31.38 0,14.32 5.5,25.88 15.96,35.24 10.46,8.81 27.53,13.21 50.1,13.21 12.11,0 23.67,-1.65 35.23,-4.4 11.02,-2.76 20.92,-6.61 29.18,-11.57 0,-13.76 -3.3,-26.42 -9.91,-37.98 -6.6,-11.57 -15.96,-20.92 -27.52,-28.08 -11.57,-7.16 -24.78,-10.46 -39.64,-10.46 z m -10.46,-50.1 c 19.27,0 35.78,3.85 50.65,12.11 14.86,8.26 25.87,18.17 34.13,30.28 h 2.75 v -33.58 h 59.46 v 175.07 c 0,36.34 -11.01,64.41 -33.03,84.78 -22.02,19.82 -53.4,29.73 -94.14,29.73 -24.23,0 -46.25,-4.95 -66.07,-14.31 -19.82,-9.36 -35.78,-23.13 -48.45,-40.19 l 42.4,-32.48 c 7.7,11.01 18.16,19.81 30.83,25.87 12.66,6.06 25.87,9.36 40.19,9.36 20.37,0 36.88,-5.51 49.54,-15.96 12.67,-11.01 19.27,-25.33 19.27,-42.4 v -14.31 c -7.7,3.86 -18.16,7.16 -31.38,10.46 -13.21,2.75 -28.08,4.4 -44.59,4.4 -33.58,0 -61.11,-8.25 -82.58,-25.32 -22.02,-17.07 -33.04,-39.64 -33.04,-68.82 0,-18.17 4.41,-34.68 13.22,-49 8.81,-14.86 20.92,-25.87 36.88,-33.58 15.97,-8.26 33.59,-12.11 53.96,-12.11 z m -220.16,8.81 h 60.56 v 394.18 h -60.56 z m -256.4,211.41 v 123.87 h 75.98 c 13.76,0 25.32,-2.76 35.23,-8.81 9.91,-6.06 17.62,-13.77 22.57,-23.13 4.96,-9.36 7.71,-19.26 7.71,-29.72 0,-10.46 -2.75,-20.37 -7.71,-29.73 -4.95,-9.36 -12.66,-17.07 -22.57,-23.12 -9.91,-6.06 -21.47,-9.36 -35.23,-9.36 z m -61.66,-211.41 h 61.66 v 153.05 h 74.88 c 23.12,0 44.59,4.95 64.41,15.42 19.27,10.46 35.23,24.77 46.8,42.94 11.56,18.16 17.06,39.08 17.06,62.21 0,23.12 -5.5,44.04 -17.06,62.21 -11.57,18.17 -27.53,32.48 -46.8,42.94 -19.82,10.46 -41.29,15.41 -64.41,15.41 h -136.54 z m -379.68,140.94 c -0.55,17.61 3.3,33.03 11.01,45.69 7.71,12.66 17.62,22.57 29.73,29.18 12.11,6.6 23.67,9.91 35.24,9.91 12.66,0 23.67,-2.75 33.58,-8.26 9.91,-6.05 16.51,-13.21 20.37,-22.57 z m 80.93,-149.75 c 29.18,0 53.95,6.6 74.32,19.82 20.37,13.21 35.79,28.08 46.8,44.59 l -49.55,33.03 c -18.17,-26.97 -42.39,-40.18 -71.57,-40.18 -31.93,0 -55.6,14.86 -70.47,44.04 l 194.34,80.38 -6.6,16.51 c -8.26,22.58 -23.13,44.05 -43.5,63.32 -20.37,19.27 -47.34,29.18 -80.93,29.18 -24.77,0 -47.89,-6.06 -68.81,-18.17 -20.92,-12.67 -37.44,-29.73 -49.55,-51.75 -12.67,-22.03 -18.72,-47.35 -18.72,-75.43 0,-26.97 6.05,-51.2 18.72,-73.22 12.66,-22.57 29.73,-40.19 51.75,-52.85 22.02,-12.67 46.79,-19.27 73.77,-19.27 v 0"
         style="fill:#ffffff;fill-opacity:1;fill-rule:nonzero;stroke:none"
         id="path34" />
      <path
         d="m 4809.26,1402.6 -117.22,265.24 h 66.04 l 80.34,-191.5 h 2.75 l 77.59,191.5 h 65.49 l -173.34,-399.52 h -63.29 l 61.64,134.28"
         style="fill:#ffffff;fill-opacity:1;fill-rule:nonzero;stroke:none"
         id="path36" />
      <path
         d="M 5876.98,1843.01 V 1679.5 h -106.26 v -46.25 h 106.26 v -289.03 h 57.25 v 498.79 z m -175.63,-41.3 h -57.25 v -82.03 c 0,-93.04 -48.45,-188.83 -126.08,-226.82 l 35.79,-45.14 c 56.7,29.18 97.44,86.98 119.46,157.45 21.48,-66.62 61.66,-121.12 117.82,-149.19 l 33.58,45.69 c -75.97,35.23 -123.32,125.53 -123.32,218.01 z m -309.18,40.2 v -496.59 h 53.95 v 496.59 z m -99.65,-188.29 h -53.4 c -6.05,93.04 -46.24,149.75 -105.7,149.75 -64.42,0 -106.81,-67.17 -106.81,-176.17 0,-109.01 42.39,-176.73 106.81,-176.73 60.56,0 101.3,59.46 106.25,156.35 h 52.85 v -238.38 h 52.86 v 464.11 h -52.86 z m -159.1,-149.75 c -34.14,0 -55.06,44.59 -55.06,123.33 0,78.72 20.92,122.76 55.06,122.76 34.13,0 55.05,-44.04 55.05,-122.76 0,-78.74 -20.92,-123.33 -55.05,-123.33 v 0"
         style="fill:#ffffff;fill-opacity:1;fill-rule:nonzero;stroke:none"
         id="path38" />
      <path
         d="m 1961.93,836.262 c 60.78,0.429 106.55,2.918 159,12.058 l 4.58,-35.371 c -57.03,-10.398 -107.8,-12.48 -175.63,-12.48 h -30.8 v 248.461 h 174.8 v -34.95 H 1961.93 V 836.262 Z m 291.76,68.258 H 2195 V 708.078 h -42.85 V 1084.73 H 2195 V 939.891 h 58.69 v -35.371 0"
         style="fill:#ffffff;fill-opacity:1;fill-rule:nonzero;stroke:none"
         id="path40" />
      <path
         d="M 2639.41,897.43 V 862.48 H 2493.7 v -71.171 h -43.69 v 71.171 h -151.5 v 34.95 h 340.9 z m -303.84,101.968 c 0,47.032 52.43,76.592 133.18,76.592 80.33,0 133.18,-29.56 133.18,-76.592 0,-47.007 -52.85,-76.566 -133.18,-76.566 -80.75,0 -133.18,29.559 -133.18,76.566 z m 48.27,-248.859 h 218.09 v -34.98 H 2340.57 V 826.68 h 43.27 v -76.141 z m -2.9,248.859 c 0,-26.636 34.53,-42.039 87.81,-42.039 52.85,0 87.39,15.403 87.39,42.039 0,26.632 -34.54,42.032 -87.39,42.032 -53.28,0 -87.81,-15.4 -87.81,-42.032 v 0"
         style="fill:#ffffff;fill-opacity:1;fill-rule:nonzero;stroke:none"
         id="path42" />
      <path
         d="M 3013.58,787.988 V 752.609 H 2673.1 v 35.379 h 148.18 v 64.09 H 2714.31 V 973.18 h 216.42 v 50.36 h -217.26 v 34.55 H 2973.2 V 939.07 h -216.87 v -52.461 h 225.19 v -34.531 h -117.39 v -64.09 h 149.45 v 0"
         style="fill:#ffffff;fill-opacity:1;fill-rule:nonzero;stroke:none"
         id="path44" />
      <path
         d="m 3406.02,792.148 v -35.367 h -340.85 v 35.367 h 340.85 z m -38.69,80.332 H 3106.8 v 178.95 h 257.63 v -34.95 H 3149.66 V 907.012 h 217.67 v -34.532 0"
         style="fill:#ffffff;fill-opacity:1;fill-rule:nonzero;stroke:none"
         id="path46" />
    </g>
  </g>
</svg>
